<svg width="303" height="116" xmlns="http://www.w3.org/2000/svg">
  <path d="M36.587 3.554c2.03 0 3.515 1.089 3.984 3.032L60.96 79.568 81.584 6.586c.468-1.866 1.875-3.032 3.984-3.032h33.28c1.561 0 2.655 1.555 2.186 3.032l-32.81 104.383c-.625 2.02-2.031 3.031-4.14 3.031H37.21c-2.03 0-3.515-.933-4.14-3.031L.104 6.586c-.468-1.4.704-3.032 2.266-3.032h34.217Zm90.619 20.83C127.206 12.104 137.362 2 149.705 2c12.343 0 22.498 10.104 22.498 22.384 0 12.28-10.155 22.385-22.498 22.385-12.343 0-22.5-10.104-22.5-22.385Zm42.654 86.352c0 1.865-1.25 3.186-3.203 3.186h-33.905c-1.874 0-3.202-1.243-3.202-3.186V58.583c0-1.865 1.25-3.187 3.202-3.187h33.905c1.874 0 3.203 1.244 3.203 3.187v52.153Zm11.561-.778 32.03-51.22-32.03-51.22c-1.171-1.865-.156-3.964 2.031-3.964H219.7c2.5 0 3.984.778 5.078 2.643l17.577 30.546 17.577-30.546c1.172-1.865 2.578-2.643 5.078-2.643h35.466c2.188 0 3.203 2.021 2.032 3.964l-32.03 51.22 32.03 51.22c1.093 1.866.156 3.964-2.032 3.964H264.23c-2.5 0-3.984-.777-5.078-2.642l-17.577-30.546-17.577 30.546c-1.094 1.865-2.5 2.642-5.078 2.642h-35.467c-2.187 0-3.202-2.02-2.03-3.964Z" fill="#FFF" fill-rule="nonzero"/>
</svg>
